<?xml version="1.0" encoding="utf-8"?>
<!-- Generator: Adobe Illustrator 25.3.0, SVG Export Plug-In . SVG Version: 6.00 Build 0)  -->
<svg version="1.1" id="Capa_1" xmlns="http://www.w3.org/2000/svg" xmlns:xlink="http://www.w3.org/1999/xlink" x="0px" y="0px"
	 viewBox="0 0 362 513.6" style="enable-background:new 0 0 362 513.6;" xml:space="preserve">
<style type="text/css">
	.st0{fill:#EC221E;}
	.st1{fill:#D81212;}
	.st2{fill:#333333;}
</style>
<g>
	<g>
		<g>
			<g>
				<path class="st0" d="M335.9,275h-0.1c16.7-27.4,26.3-59.6,26.3-94C362,81,281,0,181,0S0,81,0,181c0,34.4,9.6,66.6,26.3,94h-0.1
					l1.6,2.4c2.6,4.1,5.3,8.1,8.2,11.9l132.2,192.6c6.3,8.5,19,8.5,25.3,0l132.3-192.4c3-4,5.8-8,8.4-12.2L335.9,275z M181,43.4
					c73,0,132.1,59.2,132.1,132.1S254,307.6,181,307.6S48.9,248.5,48.9,175.5S108,43.4,181,43.4z"/>
			</g>
		</g>
	</g>
</g>
<g>
	<g>
		<g>
			<path class="st1" d="M181,83.4c50.8,0,92.1,41.3,92.1,92.1s-41.3,92.1-92.1,92.1s-92.1-41.3-92.1-92.1S130.2,83.4,181,83.4
				 M181,43.4c-73,0-132.1,59.2-132.1,132.1S108,307.6,181,307.6s132.1-59.2,132.1-132.1S254,43.4,181,43.4L181,43.4z"/>
		</g>
	</g>
</g>
<ellipse class="st2" cx="181" cy="504.5" rx="73.6" ry="9.1"/>
</svg>
